<?xml version="1.0" encoding="utf-8"?>
<!-- Generator: Adobe Illustrator 22.1.0, SVG Export Plug-In . SVG Version: 6.00 Build 0)  -->
<svg version="1.1" id="Objects" xmlns="http://www.w3.org/2000/svg" xmlns:xlink="http://www.w3.org/1999/xlink" x="0px" y="0px"
	 viewBox="0 0 82.6 32.2" style="enable-background:new 0 0 82.6 32.2;" xml:space="preserve">
<style type="text/css">
	.st0{fill:#FFFFFF;}
</style>
<g>
	<g>
		<g>
			<path class="st0" d="M8.4,25.2c-0.7,0-0.9,0.2-0.9,0.9v2.9c0,0.9-0.1,1.6-0.4,2.1c-0.4,0.5-1.1,0.9-2,0.9c-0.7,0-1.3-0.1-1.8-0.5
				c-0.6-0.5-0.8-1.1-0.8-2.4v-3.1c0-0.7-0.1-0.8-0.9-0.8V25c0.3,0,0.8,0,1.4,0c0.5,0,1,0,1.4,0v0.2c-0.7,0-0.9,0.1-0.9,0.8v3.2
				c0,1.3,0.2,2.4,1.7,2.4c1.6,0,2.1-1.1,2.1-2.5v-3.1c0-0.7-0.2-0.9-1-0.9V25c0.3,0,0.7,0,1.1,0c0.4,0,0.8,0,1,0V25.2z"/>
			<path class="st0" d="M18,25.2c-0.7,0-0.9,0.2-0.9,0.9V32h-0.2l-4.5-6.4v5.2c0,0.7,0.1,0.9,1,0.9v0.2c-0.3,0-0.7,0-1.1,0
				c-0.4,0-0.8,0-1,0v-0.2c0.7,0,0.9-0.2,0.9-0.9v-4.8c0-0.7-0.1-0.8-0.9-0.8V25c0.2,0,0.6,0,1,0c0.3,0,0.6,0,0.8,0l3.8,5.3v-4.2
				c0-0.7-0.1-0.9-1-0.9V25c0.3,0,0.7,0,1.1,0c0.4,0,0.8,0,1,0V25.2z"/>
			<path class="st0" d="M23.8,25.2c-0.7,0-0.9,0.1-0.9,0.8v4.9c0,0.7,0.1,0.8,0.9,0.8v0.2c-0.3,0-0.9,0-1.4,0c-0.6,0-1.1,0-1.4,0
				v-0.2c0.7,0,0.9-0.1,0.9-0.8v-4.9c0-0.7-0.1-0.8-0.9-0.8V25c0.3,0,0.8,0,1.4,0c0.5,0,1,0,1.4,0V25.2z"/>
			<path class="st0" d="M33.3,25v0.2c-0.3,0.1-0.6,0.3-0.9,0.9L29.9,32h-0.1c0,0-0.1,0-0.1,0l-2.6-6.2c-0.2-0.5-0.5-0.6-0.7-0.6V25
				c0.3,0,0.7,0,1.2,0c0.6,0,1.1,0,1.4,0v0.2c-0.5,0-0.8,0.1-0.8,0.4c0,0.1,0,0.3,0.1,0.5l2,4.7l1.8-4.1c0.1-0.3,0.2-0.6,0.2-0.8
				c0-0.4-0.3-0.6-0.9-0.6V25c0.4,0,0.9,0,1.2,0C32.8,25,33.1,25,33.3,25z"/>
			<path class="st0" d="M41.4,31.9c-0.7,0-1.7,0-2.5,0c-0.6,0-2.1,0-3.1,0v-0.2c0.7,0,0.9-0.1,0.9-0.8v-4.9c0-0.7-0.1-0.8-0.9-0.8
				V25c1.1,0,2.5,0,3.1,0c0.7,0,1.6,0,2.3,0c-0.1,0.5-0.1,0.9-0.1,1.2c0,0.2,0,0.5,0,0.6h-0.2c-0.1-1.2-0.3-1.5-1.4-1.5h-0.9
				c-0.7,0-0.9,0.1-0.9,0.8v2.3h0.7c0.9,0,0.9-0.8,1-1.3h0.2c0,0.4,0,0.7,0,0.9c0,0.2,0,0.3,0,0.5c0,0.3,0,0.6,0.1,1.4h-0.2
				c-0.1-0.6-0.1-1.3-1-1.3h-0.7v2.4c0,0.7,0.1,0.8,0.9,0.8h0.8c1.3,0,1.6-0.4,1.8-1.7h0.2c0,0.2,0,0.4,0,0.7
				C41.3,30.9,41.3,31.5,41.4,31.9z"/>
			<path class="st0" d="M51.2,31.5c-0.3,0.4-0.6,0.6-1.2,0.6c-0.5,0-1-0.2-1.2-1.1l-0.2-1c-0.2-0.8-0.4-1.4-1.2-1.4h-1v2.3
				c0,0.7,0.1,0.8,0.9,0.8v0.2c-0.3,0-0.9,0-1.4,0c-0.6,0-1.1,0-1.4,0v-0.2c0.7,0,0.9-0.1,0.9-0.8v-4.9c0-0.7-0.1-0.8-0.9-0.8V25
				c0.3,0,0.8,0,1.3,0c0.7,0,1.4,0,1.6,0c1.7,0,2.6,0.7,2.6,1.7c0,0.7-0.5,1.7-2.1,1.9l0.1,0c1,0.1,1.3,0.5,1.5,1.3l0.3,1
				c0.1,0.6,0.3,0.8,0.6,0.8c0.3,0,0.4-0.1,0.6-0.4L51.2,31.5z M46.4,26.1v2.4h0.7c1.5,0,1.9-0.7,1.9-1.6c0-1-0.5-1.6-1.8-1.6
				C46.5,25.2,46.4,25.4,46.4,26.1z"/>
			<path class="st0" d="M57.3,25.3c0.2,0.1,0.3,0.1,0.4,0.1c0.1,0,0.2-0.1,0.2-0.4h0.2c0,0.3-0.1,0.8-0.1,2h-0.2
				c-0.1-0.9-0.6-1.9-1.8-1.9c-0.8,0-1.3,0.5-1.3,1.1c0,0.9,0.8,1.2,1.8,1.8c1.1,0.6,1.9,1.2,1.9,2.2c0,1.2-1,1.9-2.3,1.9
				c-0.8,0-1.2-0.2-1.5-0.4c-0.2-0.1-0.3-0.1-0.4-0.1c-0.1,0-0.2,0.1-0.2,0.4h-0.2c0-0.4,0-1,0-2.3h0.2c0.1,1.2,0.6,2.2,2,2.2
				c0.7,0,1.4-0.4,1.4-1.3c0-0.8-0.7-1.2-1.7-1.8c-1-0.6-1.9-1.1-1.9-2.2c0-1.2,1-1.7,2-1.7C56.7,24.9,57,25.1,57.3,25.3z"/>
			<path class="st0" d="M64.4,25.2c-0.7,0-0.9,0.1-0.9,0.8v4.9c0,0.7,0.1,0.8,0.9,0.8v0.2c-0.3,0-0.9,0-1.4,0c-0.6,0-1.1,0-1.4,0
				v-0.2c0.7,0,0.9-0.1,0.9-0.8v-4.9c0-0.7-0.1-0.8-0.9-0.8V25c0.3,0,0.8,0,1.4,0c0.5,0,1,0,1.4,0V25.2z"/>
			<path class="st0" d="M73.3,26.3c0,0.3,0,0.6,0,0.8h-0.2c-0.2-1.4-0.3-1.8-1.7-1.8h-0.6v5.6c0,0.8,0.2,0.9,1.1,0.9v0.2
				c-0.4,0-1,0-1.6,0c-0.6,0-1.3,0-1.6,0v-0.2c0.9,0,1.1-0.1,1.1-0.9v-5.6h-0.6c-1.3,0-1.5,0.5-1.7,1.8h-0.2c0-0.2,0-0.5,0-0.8
				c0-0.2,0-0.8-0.1-1.3c0.9,0,2.2,0,3,0c0.9,0,2.1,0,3,0C73.3,25.5,73.3,26,73.3,26.3z"/>
			<path class="st0" d="M82.2,25v0.2c-0.3,0.1-0.5,0.3-0.9,0.9l-1.7,3v1.8c0,0.7,0.1,0.8,0.9,0.8v0.2c-0.3,0-0.9,0-1.4,0
				c-0.6,0-1.1,0-1.4,0v-0.2c0.7,0,0.9-0.1,0.9-0.8v-1.5l-2.2-3.7c-0.3-0.5-0.5-0.5-0.6-0.5V25c0.3,0,0.6,0,0.9,0c0.5,0,1,0,1.5,0
				v0.2c-0.4,0-0.8,0.1-0.8,0.4c0,0.1,0,0.2,0.1,0.3l1.8,3.1l1.4-2.5c0.2-0.4,0.3-0.6,0.3-0.8c0-0.4-0.4-0.5-1-0.5V25
				c0.4,0,0.9,0,1.2,0C81.7,25,81.9,25,82.2,25z"/>
		</g>
	</g>
	<g>
		<g>
			<path class="st0" d="M19.7,18.3l-3.8,3.5H5.3l-3.8-3.5V4.9H0V0h9.5v4.9H8.1v11.3l0.8,0.7h3.5l0.8-0.7V4.9h-1.4V0h9.5v4.9h-1.4
				V18.3z"/>
			<path class="st0" d="M30.8,16.9h1.4v4.9h-9.5v-4.9h1.4v-12h-1.4V0h14.9l3.8,3.5v5.6l-1.6,1.4l1.6,1.4v5H43v4.9h-8.1v-8.1L34.1,13
				h-3.3V16.9z M30.8,8.1h3.3l0.8-0.7V5.6l-0.8-0.7h-3.3V8.1z"/>
			<path class="st0" d="M63.3,12v6.4l-3.8,3.5H44.6v-4.9H46v-12h-1.4V0h14.9l3.8,3.5v5.6l-1.6,1.4L63.3,12z M56.7,5.6l-0.8-0.7h-3.3
				v3.1h3.3l0.8-0.7V5.6z M56.7,13.7L55.9,13h-3.3v3.9h3.3l0.8-0.7V13.7z"/>
			<path class="st0" d="M77.2,13.4h-4.2v3.5h4.2V16h5.4v5.8H64.9v-4.9h1.4v-12h-1.4V0h17.7v5.8h-5.4V4.9h-4.2v3.5h4.2"/>
		</g>
	</g>
</g>
</svg>
